<mxfile host="app.diagrams.net" modified="2021-12-07T10:45:47.797Z" agent="5.0 (Windows NT 10.0; Win64; x64) AppleWebKit/537.36 (KHTML, like Gecko) Chrome/87.0.4280.88 Safari/537.36" etag="RF1VwHY139vmuH5oue_X" version="15.9.1" type="github">
  <diagram id="366FSIkHeRsNnDpvFd8I" name="Page-1">
    <mxGraphModel dx="942" dy="1694" grid="1" gridSize="10" guides="1" tooltips="1" connect="1" arrows="1" fold="1" page="1" pageScale="1" pageWidth="827" pageHeight="1169" math="0" shadow="0">
      <root>
        <mxCell id="0" />
        <mxCell id="1" parent="0" />
        <mxCell id="IClxwsaZf7oIu3q87QGM-1" value="Inicio" style="shape=mxgraph.flowchart.terminator;strokeWidth=2;gradientColor=none;gradientDirection=north;fontStyle=0;html=1;" parent="1" vertex="1">
          <mxGeometry x="110" y="-790" width="120" height="30" as="geometry" />
        </mxCell>
        <mxCell id="IClxwsaZf7oIu3q87QGM-2" style="fontStyle=1;strokeColor=#003366;strokeWidth=1;html=1;entryX=0.5;entryY=0;entryDx=0;entryDy=0;entryPerimeter=0;" parent="1" source="IClxwsaZf7oIu3q87QGM-1" target="IClxwsaZf7oIu3q87QGM-4" edge="1">
          <mxGeometry relative="1" as="geometry">
            <mxPoint x="180" y="80" as="targetPoint" />
          </mxGeometry>
        </mxCell>
        <mxCell id="IClxwsaZf7oIu3q87QGM-3" style="edgeStyle=orthogonalEdgeStyle;rounded=0;orthogonalLoop=1;jettySize=auto;html=1;exitX=0.5;exitY=1;exitDx=0;exitDy=0;exitPerimeter=0;entryX=0.599;entryY=0.136;entryDx=0;entryDy=0;entryPerimeter=0;" parent="1" source="IClxwsaZf7oIu3q87QGM-4" target="IClxwsaZf7oIu3q87QGM-6" edge="1">
          <mxGeometry relative="1" as="geometry" />
        </mxCell>
        <mxCell id="IClxwsaZf7oIu3q87QGM-4" value="Informe a Data de Hoje" style="strokeWidth=2;html=1;shape=mxgraph.flowchart.display;whiteSpace=wrap;" parent="1" vertex="1">
          <mxGeometry x="110" y="-710" width="120" height="80" as="geometry" />
        </mxCell>
        <mxCell id="IClxwsaZf7oIu3q87QGM-5" style="edgeStyle=orthogonalEdgeStyle;rounded=0;orthogonalLoop=1;jettySize=auto;html=1;exitX=0.5;exitY=1;exitDx=0;exitDy=0;entryX=0.5;entryY=0;entryDx=0;entryDy=0;" parent="1" source="IClxwsaZf7oIu3q87QGM-6" target="IClxwsaZf7oIu3q87QGM-7" edge="1">
          <mxGeometry relative="1" as="geometry" />
        </mxCell>
        <mxCell id="IClxwsaZf7oIu3q87QGM-6" value="Data de Hoje" style="html=1;strokeWidth=2;shape=manualInput;whiteSpace=wrap;rounded=1;size=26;arcSize=11;" parent="1" vertex="1">
          <mxGeometry x="115" y="-600" width="100" height="60" as="geometry" />
        </mxCell>
        <mxCell id="IClxwsaZf7oIu3q87QGM-46" style="edgeStyle=orthogonalEdgeStyle;rounded=0;orthogonalLoop=1;jettySize=auto;html=1;exitX=0.5;exitY=1;exitDx=0;exitDy=0;entryX=0.5;entryY=0;entryDx=0;entryDy=0;entryPerimeter=0;" parent="1" source="IClxwsaZf7oIu3q87QGM-7" target="IClxwsaZf7oIu3q87QGM-9" edge="1">
          <mxGeometry relative="1" as="geometry" />
        </mxCell>
        <mxCell id="IClxwsaZf7oIu3q87QGM-7" value="Data de Hoje = DH" style="rounded=1;whiteSpace=wrap;html=1;absoluteArcSize=1;arcSize=14;strokeWidth=2;" parent="1" vertex="1">
          <mxGeometry x="115" y="-473" width="100" height="60" as="geometry" />
        </mxCell>
        <mxCell id="IClxwsaZf7oIu3q87QGM-8" style="edgeStyle=orthogonalEdgeStyle;rounded=0;orthogonalLoop=1;jettySize=auto;html=1;exitX=0.5;exitY=1;exitDx=0;exitDy=0;exitPerimeter=0;entryX=0.589;entryY=0.136;entryDx=0;entryDy=0;entryPerimeter=0;" parent="1" source="IClxwsaZf7oIu3q87QGM-9" target="IClxwsaZf7oIu3q87QGM-11" edge="1">
          <mxGeometry relative="1" as="geometry" />
        </mxCell>
        <mxCell id="IClxwsaZf7oIu3q87QGM-9" value="Informe a Data do Evento" style="strokeWidth=2;html=1;shape=mxgraph.flowchart.display;whiteSpace=wrap;" parent="1" vertex="1">
          <mxGeometry x="105" y="-380" width="120" height="60" as="geometry" />
        </mxCell>
        <mxCell id="IClxwsaZf7oIu3q87QGM-10" style="edgeStyle=orthogonalEdgeStyle;rounded=0;orthogonalLoop=1;jettySize=auto;html=1;exitX=0.5;exitY=1;exitDx=0;exitDy=0;entryX=0.5;entryY=0;entryDx=0;entryDy=0;" parent="1" source="IClxwsaZf7oIu3q87QGM-11" target="IClxwsaZf7oIu3q87QGM-13" edge="1">
          <mxGeometry relative="1" as="geometry" />
        </mxCell>
        <mxCell id="IClxwsaZf7oIu3q87QGM-11" value="Data do Evento" style="html=1;strokeWidth=2;shape=manualInput;whiteSpace=wrap;rounded=1;size=26;arcSize=11;" parent="1" vertex="1">
          <mxGeometry x="105" y="-304" width="100" height="60" as="geometry" />
        </mxCell>
        <mxCell id="IClxwsaZf7oIu3q87QGM-12" style="edgeStyle=orthogonalEdgeStyle;rounded=0;orthogonalLoop=1;jettySize=auto;html=1;exitX=0.5;exitY=1;exitDx=0;exitDy=0;entryX=0.503;entryY=-0.033;entryDx=0;entryDy=0;entryPerimeter=0;" parent="1" source="IClxwsaZf7oIu3q87QGM-13" target="IClxwsaZf7oIu3q87QGM-16" edge="1">
          <mxGeometry relative="1" as="geometry" />
        </mxCell>
        <mxCell id="IClxwsaZf7oIu3q87QGM-13" value="Data do Evento =DE" style="rounded=1;whiteSpace=wrap;html=1;absoluteArcSize=1;arcSize=14;strokeWidth=2;" parent="1" vertex="1">
          <mxGeometry x="115" y="-214" width="100" height="60" as="geometry" />
        </mxCell>
        <mxCell id="IClxwsaZf7oIu3q87QGM-14" value="não" style="edgeStyle=orthogonalEdgeStyle;rounded=0;orthogonalLoop=1;jettySize=auto;html=1;entryX=0.426;entryY=-0.031;entryDx=0;entryDy=0;entryPerimeter=0;" parent="1" source="IClxwsaZf7oIu3q87QGM-16" edge="1">
          <mxGeometry relative="1" as="geometry">
            <mxPoint x="165.37999999999988" y="14.1400000000001" as="targetPoint" />
          </mxGeometry>
        </mxCell>
        <mxCell id="IClxwsaZf7oIu3q87QGM-15" value="sim" style="edgeStyle=orthogonalEdgeStyle;rounded=0;orthogonalLoop=1;jettySize=auto;html=1;entryX=0;entryY=0.5;entryDx=0;entryDy=0;entryPerimeter=0;" parent="1" source="IClxwsaZf7oIu3q87QGM-16" target="IClxwsaZf7oIu3q87QGM-18" edge="1">
          <mxGeometry relative="1" as="geometry" />
        </mxCell>
        <mxCell id="IClxwsaZf7oIu3q87QGM-16" value="DE&amp;gt;DH" style="strokeWidth=2;html=1;shape=mxgraph.flowchart.decision;whiteSpace=wrap;" parent="1" vertex="1">
          <mxGeometry x="115" y="-124" width="100" height="100" as="geometry" />
        </mxCell>
        <mxCell id="IClxwsaZf7oIu3q87QGM-17" style="edgeStyle=orthogonalEdgeStyle;rounded=0;orthogonalLoop=1;jettySize=auto;html=1;entryX=0.5;entryY=1;entryDx=0;entryDy=0;" parent="1" target="IClxwsaZf7oIu3q87QGM-20" edge="1">
          <mxGeometry relative="1" as="geometry">
            <mxPoint x="415" y="180" as="sourcePoint" />
          </mxGeometry>
        </mxCell>
        <mxCell id="IClxwsaZf7oIu3q87QGM-18" value="Evento Permitido -Informe Data de Nascimento" style="strokeWidth=2;html=1;shape=mxgraph.flowchart.display;whiteSpace=wrap;" parent="1" vertex="1">
          <mxGeometry x="352.5" y="180" width="135" height="60" as="geometry" />
        </mxCell>
        <mxCell id="IClxwsaZf7oIu3q87QGM-19" style="edgeStyle=orthogonalEdgeStyle;rounded=0;orthogonalLoop=1;jettySize=auto;html=1;entryX=0;entryY=0.5;entryDx=0;entryDy=0;exitX=-0.011;exitY=0.604;exitDx=0;exitDy=0;exitPerimeter=0;" parent="1" source="IClxwsaZf7oIu3q87QGM-20" target="IClxwsaZf7oIu3q87QGM-22" edge="1">
          <mxGeometry relative="1" as="geometry">
            <mxPoint x="350" y="50" as="targetPoint" />
            <Array as="points">
              <mxPoint x="350" y="136" />
              <mxPoint x="350" y="60" />
            </Array>
          </mxGeometry>
        </mxCell>
        <mxCell id="IClxwsaZf7oIu3q87QGM-20" value="&amp;nbsp;&lt;br&gt;Data de Nascimento" style="html=1;strokeWidth=2;shape=manualInput;whiteSpace=wrap;rounded=1;size=26;arcSize=11;" parent="1" vertex="1">
          <mxGeometry x="365" y="100" width="100" height="60" as="geometry" />
        </mxCell>
        <mxCell id="IClxwsaZf7oIu3q87QGM-21" style="edgeStyle=orthogonalEdgeStyle;rounded=0;orthogonalLoop=1;jettySize=auto;html=1;" parent="1" source="IClxwsaZf7oIu3q87QGM-22" edge="1">
          <mxGeometry relative="1" as="geometry">
            <mxPoint x="415" as="targetPoint" />
          </mxGeometry>
        </mxCell>
        <mxCell id="IClxwsaZf7oIu3q87QGM-22" value="Data de Nascimento =DN" style="rounded=1;whiteSpace=wrap;html=1;absoluteArcSize=1;arcSize=14;strokeWidth=2;" parent="1" vertex="1">
          <mxGeometry x="365" y="30" width="100" height="60" as="geometry" />
        </mxCell>
        <mxCell id="IClxwsaZf7oIu3q87QGM-23" value="nao" style="edgeStyle=orthogonalEdgeStyle;rounded=0;orthogonalLoop=1;jettySize=auto;html=1;entryX=0;entryY=0.5;entryDx=0;entryDy=0;entryPerimeter=0;" parent="1" source="IClxwsaZf7oIu3q87QGM-25" target="IClxwsaZf7oIu3q87QGM-26" edge="1">
          <mxGeometry relative="1" as="geometry" />
        </mxCell>
        <mxCell id="IClxwsaZf7oIu3q87QGM-24" value="sim" style="edgeStyle=orthogonalEdgeStyle;rounded=0;orthogonalLoop=1;jettySize=auto;html=1;" parent="1" source="IClxwsaZf7oIu3q87QGM-25" edge="1">
          <mxGeometry relative="1" as="geometry">
            <mxPoint x="415" y="-140" as="targetPoint" />
            <Array as="points">
              <mxPoint x="415" y="-140" />
              <mxPoint x="415" y="-140" />
            </Array>
          </mxGeometry>
        </mxCell>
        <mxCell id="IClxwsaZf7oIu3q87QGM-25" value="DN&amp;gt;18" style="strokeWidth=2;html=1;shape=mxgraph.flowchart.decision;whiteSpace=wrap;" parent="1" vertex="1">
          <mxGeometry x="365" y="-86" width="100" height="86" as="geometry" />
        </mxCell>
        <mxCell id="IClxwsaZf7oIu3q87QGM-26" value="Idade não permitida para cadastrar" style="strokeWidth=2;html=1;shape=mxgraph.flowchart.display;whiteSpace=wrap;" parent="1" vertex="1">
          <mxGeometry x="495" y="-73" width="130" height="60" as="geometry" />
        </mxCell>
        <mxCell id="IClxwsaZf7oIu3q87QGM-48" style="edgeStyle=orthogonalEdgeStyle;rounded=0;orthogonalLoop=1;jettySize=auto;html=1;entryX=0.438;entryY=1.067;entryDx=0;entryDy=0;entryPerimeter=0;" parent="1" source="IClxwsaZf7oIu3q87QGM-28" target="IClxwsaZf7oIu3q87QGM-47" edge="1">
          <mxGeometry relative="1" as="geometry" />
        </mxCell>
        <mxCell id="IClxwsaZf7oIu3q87QGM-28" value="Fazer Cadastro" style="strokeWidth=2;html=1;shape=mxgraph.flowchart.display;whiteSpace=wrap;" parent="1" vertex="1">
          <mxGeometry x="355" y="-470" width="130" height="60" as="geometry" />
        </mxCell>
        <mxCell id="IClxwsaZf7oIu3q87QGM-29" style="edgeStyle=orthogonalEdgeStyle;rounded=0;orthogonalLoop=1;jettySize=auto;html=1;exitX=0.5;exitY=0;exitDx=0;exitDy=0;entryX=0.5;entryY=1;entryDx=0;entryDy=0;" parent="1" edge="1">
          <mxGeometry relative="1" as="geometry">
            <mxPoint x="417.5" y="-200" as="sourcePoint" />
            <mxPoint x="418.75" y="-230" as="targetPoint" />
          </mxGeometry>
        </mxCell>
        <mxCell id="IClxwsaZf7oIu3q87QGM-43" value="nao" style="edgeStyle=orthogonalEdgeStyle;rounded=0;orthogonalLoop=1;jettySize=auto;html=1;" parent="1" source="IClxwsaZf7oIu3q87QGM-35" edge="1">
          <mxGeometry relative="1" as="geometry">
            <mxPoint x="560" y="-274" as="targetPoint" />
          </mxGeometry>
        </mxCell>
        <mxCell id="IClxwsaZf7oIu3q87QGM-45" value="sim" style="edgeStyle=orthogonalEdgeStyle;rounded=0;orthogonalLoop=1;jettySize=auto;html=1;" parent="1" source="IClxwsaZf7oIu3q87QGM-35" edge="1">
          <mxGeometry relative="1" as="geometry">
            <mxPoint x="418.75" y="-410" as="targetPoint" />
          </mxGeometry>
        </mxCell>
        <mxCell id="IClxwsaZf7oIu3q87QGM-35" value="cadastro &amp;gt;=100" style="rhombus;whiteSpace=wrap;html=1;" parent="1" vertex="1">
          <mxGeometry x="363.75" y="-319" width="110" height="90" as="geometry" />
        </mxCell>
        <mxCell id="IClxwsaZf7oIu3q87QGM-40" value="Cadastros esgotados" style="strokeWidth=2;html=1;shape=mxgraph.flowchart.display;whiteSpace=wrap;" parent="1" vertex="1">
          <mxGeometry x="560" y="-304" width="130" height="60" as="geometry" />
        </mxCell>
        <mxCell id="IClxwsaZf7oIu3q87QGM-41" value="Evento não Permitido" style="strokeWidth=2;html=1;shape=mxgraph.flowchart.display;whiteSpace=wrap;" parent="1" vertex="1">
          <mxGeometry x="95" y="10" width="130" height="60" as="geometry" />
        </mxCell>
        <mxCell id="IClxwsaZf7oIu3q87QGM-42" value="Listar Participante e Palestras por Evento" style="strokeWidth=2;html=1;shape=mxgraph.flowchart.display;whiteSpace=wrap;" parent="1" vertex="1">
          <mxGeometry x="343.75" y="-200" width="130" height="60" as="geometry" />
        </mxCell>
        <mxCell id="IClxwsaZf7oIu3q87QGM-47" value="Fim" style="shape=mxgraph.flowchart.terminator;strokeWidth=2;gradientColor=none;gradientDirection=north;fontStyle=0;html=1;" parent="1" vertex="1">
          <mxGeometry x="367.5" y="-550" width="120" height="30" as="geometry" />
        </mxCell>
      </root>
    </mxGraphModel>
  </diagram>
</mxfile>
